<svg xmlns="http://www.w3.org/2000/svg" xmlns:xlink="http://www.w3.org/1999/xlink" version="1.1" x="0px" y="0px" width="100px" height="100px" viewBox="0 0 100 100" enable-background="new 0 0 100 100" xml:space="preserve">
<g id="Captions">
	<rect x="-192" width="185" height="99"/>
	<rect y="-36" width="100" height="30"/>
	<text transform="matrix(1 0 0 1 66 -19.5)" fill="#000000" font-family="'Helvetica'" font-size="2.4">http://thenounproject.com</text>
	<text transform="matrix(1 0 0 1 7.166 -24.5)"><tspan x="0" y="0" fill="#000000" font-family="'Helvetica-Bold'" font-size="6.1578">The Noun Project</tspan><tspan x="1.12" y="4.8" fill="#000000" font-family="'Helvetica-Bold'" font-size="4">Icon Template</tspan></text>
	<text transform="matrix(1 0 0 1 -178.5 10.5)" fill="#000000" font-family="'Helvetica-Bold'" font-size="6.1578">Reminders</text>
	<line fill="#000000" stroke="#FFFFFF" stroke-miterlimit="10" x1="8" y1="-14.5" x2="18" y2="-14.5"/>
	<line fill="#000000" stroke="#FFFFFF" stroke-miterlimit="10" x1="-179" y1="16.5" x2="-162" y2="16.5"/>
	<g>
		<g>
			<g>
				<rect x="-170.802" y="31.318" fill="#000000" width="8.721" height="8.642"/>
				<path fill="#000000" d="M-164.455,42.312h4.747v-4.703h-4.747V42.312z M-159.266,42.749h-5.63V37.17h5.63V42.749      L-159.266,42.749z M-166.221,44.062h8.279v-8.203h-8.279V44.062L-166.221,44.062z M-157.5,44.5h-9.163v-9.079h9.163V44.5      L-157.5,44.5z"/>
				<polygon fill="#000000" points="-166.149,44.133 -166.292,43.991 -158.013,35.787 -157.871,35.929     "/>
			</g>
		</g>
	</g>
	<rect x="-179" y="58" fill="none" width="35" height="32.5"/>
	<text transform="matrix(1 0 0 1 -179 60.1572)"><tspan x="0" y="0" fill="#000000" font-family="'Helvetica-Bold'" font-size="3">Strokes</tspan><tspan x="0" y="5" fill="#000000" font-family="'Helvetica'" font-size="2.4">Try to keep strokes at 4px</tspan><tspan x="0" y="10" fill="#000000" font-family="'Helvetica'" font-size="2.4">Minimum stroke weight is 2px</tspan><tspan x="0" y="14.5" fill="#000000" font-family="'Helvetica'" font-size="2.4">For thicker strokes use even </tspan><tspan x="0" y="17.5" fill="#000000" font-family="'Helvetica'" font-size="2.4">numbers: 6px, 8px etc.</tspan><tspan x="0" y="22" fill="#000000" font-family="'Helvetica-Bold'" font-size="2.4">Remember to expand strokes </tspan><tspan x="0" y="25" fill="#000000" font-family="'Helvetica-Bold'" font-size="2.4">before saving as an SVG </tspan></text>
	<rect x="-136.5" y="58" fill="none" width="35" height="32.5"/>
	<text transform="matrix(1 0 0 1 -136.5 60.1572)"><tspan x="0" y="0" fill="#000000" font-family="'Helvetica-Bold'" font-size="3">Size</tspan><tspan x="0" y="5" fill="#000000" font-family="'Helvetica'" font-size="2.4">Cannot be wider or taller than </tspan><tspan x="0" y="8.5" fill="#000000" font-family="'Helvetica'" font-size="2.4">100px (artboard size)</tspan><tspan x="0" y="13.5" fill="#000000" font-family="'Helvetica'" font-size="2.4">Scale your icon to fill as much of </tspan><tspan x="0" y="16.5" fill="#000000" font-family="'Helvetica'" font-size="2.4">the artboard as possible</tspan></text>
	<rect x="-94" y="58" fill="none" width="35" height="32.5"/>
	<text transform="matrix(1 0 0 1 -94 60.1572)"><tspan x="0" y="0" fill="#000000" font-family="'Helvetica-Bold'" font-size="3">Ungroup</tspan><tspan x="0" y="5" fill="#000000" font-family="'Helvetica'" font-size="2.4">If your design has more than one </tspan><tspan x="0" y="8" fill="#000000" font-family="'Helvetica'" font-size="2.4">shape, make sure to ungroup</tspan></text>
	<rect x="-50" y="58" fill="none" width="35" height="32.5"/>
	<text transform="matrix(1 0 0 1 -50 60.1572)"><tspan x="0" y="0" fill="#000000" font-family="'Helvetica-Bold'" font-size="3">Save as</tspan><tspan x="0" y="5" fill="#000000" font-family="'Helvetica'" font-size="2.4">Save as .SVG and make sure </tspan><tspan x="0" y="8" fill="#000000" font-family="'Helvetica'" font-size="2.4">&#8220;Use Artboards&#8221; is checked</tspan></text>
	<text transform="matrix(1.0074 0 0 1 -125.542 30.5933)" fill="#000000" font-family="'Helvetica'" font-size="2.5731">100px</text>
	<text transform="matrix(1.0074 0 0 1 -41 39)" fill="#000000" font-family="'Helvetica-Bold'" font-size="5.1462">.SVG</text>
	<rect x="-126.514" y="34.815" fill="#000000" width="10.261" height="10.185"/>
	<rect x="-126.477" y="31.766" fill="#000000" width="0.522" height="2.337"/>
	<rect x="-116.812" y="31.766" fill="#000000" width="0.523" height="2.337"/>
	<rect x="-127" y="32.337" fill="#000000" width="11.233" height="0.572"/>
	<g>
		<rect x="-83.805" y="33.844" fill="#000000" width="10.305" height="10.156"/>
		<rect x="-76.809" y="28.707" fill="#000000" width="3.308" height="3.261"/>
	</g>
	<rect x="-178.5" y="22.5" fill="#000000" stroke="#FFFFFF" stroke-miterlimit="10" width="30" height="30"/>
	<rect x="-136.5" y="22.5" fill="#000000" stroke="#FFFFFF" stroke-miterlimit="10" width="30" height="30"/>
	<rect x="-93.5" y="22.5" fill="#000000" stroke="#FFFFFF" stroke-miterlimit="10" width="30" height="30"/>
	<rect x="-49.5" y="22.5" fill="#000000" stroke="#FFFFFF" stroke-miterlimit="10" width="30" height="30"/>
</g>
<g id="Your_Icon">
	<g>
		<path d="M91.083,67.838c-1.592,3.152-3.183,6.305-4.774,9.457c-0.385,0.764,0.588,2.441,1.118,2.973    c1.021,1.022,2.106,1.693,3.561,1.731c1.229,0.032,2.604-0.537,3.469-1.445c0.522-0.55,1.847-2.488,1.421-3.322    C94.279,74.1,92.681,70.969,91.083,67.838"/>
	</g>
	<path d="M85.215,60.227c-0.708-0.604-1.417-1.209-2.126-1.812c-0.322-0.275-0.097-1.291-0.097-1.751c0-2.376-1.48-4.757-3.499-6   c-8.203-5.056-8.199-5.064-32.49-20.501l1.517-2.654l-5.31-3.498l-1.447,2.383c0,0-19.157-11.104-21.82-12.886   c-2.111-1.413-5.298-2.896-8.072-2.166c-1.494,0.394-2.919,0.868-4.065,2.021c-1.111,1.115-1.994,2.262-2.455,3.805   c-0.859,2.876-0.114,6.438,2.021,8.574c1.088,1.088,25.311,15.597,25.311,15.597l-1.687,2.667l4.701,3.222l2.359-3.722   c0.835,0.498,32.36,19.638,34.534,20.673c1.281,0.61,2.594,0.814,4.045,0.577c0.734-0.12,1.326-0.432,2.022-0.674   c0.716-0.249,0.706-0.198,1.494,0.096c2.256,0.841,4.51,1.682,6.766,2.521c0.476,0.177,0.872,0.559,1.157,0.094   c0.555-0.904,1.107-1.808,1.662-2.711C88.229,62.796,86.722,61.511,85.215,60.227z M35.515,36.546l-23.09-13.737   c-1.604-0.984-2.106-3.083-1.121-4.687c0.984-1.604,3.083-2.106,4.687-1.121l23.228,13.821L35.515,36.546z M78.144,58.815   c-1.231,2.005-3.855,2.632-5.859,1.4L50.353,46.757c-2.006-1.231,9.941-3.896,9.941-3.896l16.447,10.095   C78.746,54.187,79.375,56.811,78.144,58.815z"/>
	<g>
		<rect x="57.243" y="42.676" transform="matrix(0.5184 -0.8551 0.8551 0.5184 -8.8483 71.3838)" width="3.423" height="1.743"/>
		<rect x="60.508" y="44.656" transform="matrix(0.5182 -0.8552 0.8552 0.5182 -8.9616 75.1461)" width="3.422" height="1.743"/>
		
			<rect x="53.971" y="40.694" transform="matrix(0.5183 -0.8552 0.8552 0.5183 -8.7244 67.6416)" fill="#000000" width="3.423" height="1.743"/>
		
			<rect x="50.703" y="38.714" transform="matrix(0.5181 -0.8553 0.8553 0.5181 -8.5996 63.9075)" fill="#000000" width="3.423" height="1.743"/>
		
			<rect x="47.435" y="36.733" transform="matrix(0.5181 -0.8553 0.8553 0.5181 -8.4804 60.1583)" fill="#000000" width="3.423" height="1.743"/>
		<rect x="63.773" y="46.634" transform="matrix(0.518 -0.8554 0.8554 0.518 -9.0732 78.9096)" width="3.422" height="1.743"/>
		<rect x="67.037" y="48.613" transform="matrix(0.518 -0.8554 0.8554 0.518 -9.1921 82.6557)" width="3.422" height="1.743"/>
		<rect x="70.302" y="50.591" transform="matrix(0.5181 -0.8553 0.8553 0.5181 -9.3141 86.3943)" width="3.423" height="1.744"/>
		<rect x="73.567" y="52.57" transform="matrix(0.5183 -0.8552 0.8552 0.5183 -9.4416 90.1203)" width="3.423" height="1.743"/>
	</g>
</g>
</svg>